# xmcd
#
# Track frame offsets:
#  150
#  10575
#  21415
#  31790
#  43552
#  55655
#  66945
#  76545
#  87622
#  97162
#  107755
#  117452
#  126347
#  137315
#  147730
#  158010
#  168785
#  178487
#  189735
#  200537
#  212365
#  226050
#  238152
#  249645
#  261172
#  274005
#  286277
#  298205
#
# Disc length: 4110 seconds
#
# Revision: 0
# Processed by: cddbd v1.5.1PL2 Copyright (c) Steve Scherf et al.
# Submitted via: Collectorz.com_Music_Collector 6.9
#
DISCID=99100c1c
DTITLE=Various Artist - Doo-Bop-Jivers - Volume 02
DYEAR=1995
DGENRE=Doo-Wop
TTITLE0=Four Voices, The - Bim Bam Baby
TTITLE1=Hollywood Chorus, The - That's All I Want Tonight
TTITLE2=Hollywood Flames, The - Buzz Buzz Buzz
TTITLE3=Cues, The - Destination 2165
TTITLE4=Anthony, Little and The Imperials - Oooh! Look A There
TTITLE5=Drifters, The - Fools Fall In Love
TTITLE6=Treniers, The - Rock-A-Beatin Boogie
TTITLE7=Busters, The - Butcher Pete
TTITLE8=Flyers, The - One Bended Knee
TTITLE9=Four Tophats, The - Forty Five Men In A Telephone Booth
TTITLE10=Flying Platters, The - Darktown Strutter's Ball
TTITLE11=Deep River Boys, The - Whole Wide World
TTITLE12=Velvets, The - Dance Honey Dance
TTITLE13=Teenagers, The - Mama Don't Allow It
TTITLE14=Tibbs Brothers, The - Miss Ripp Van Winkle
TTITLE15=Cleftones, The - Some Kinda Blue
TTITLE16=Marcels, The - Twistin' Fever
TTITLE17=Dan and Julian - What I Realy Mean To Say
TTITLE18=Ricks, J. and the Raves - Daddy Rollin' Stone
TTITLE19=Royal Robins, The - Turn Me Loose
TTITLE20=Four Holidays, The - I Can't Wait
TTITLE21=Catalinas, The - Hobo
TTITLE22=Valentinos, The - Darling Come Back Home
TTITLE23=Five Satins, The - You Can Count On Me
TTITLE24=Serenaders, The - Two Lovers Make One Fool
TTITLE25=Royal Premiers, The - I Can Make It If I Try
TTITLE26=Five Royals, The - Catch That Teardrop
TTITLE27=Conductor, The - Bla Bla Bla Cha Cha Cha
EXTD=
EXTT0=
EXTT1=
EXTT2=
EXTT3=
EXTT4=
EXTT5=
EXTT6=
EXTT7=
EXTT8=
EXTT9=
EXTT10=
EXTT11=
EXTT12=
EXTT13=
EXTT14=
EXTT15=
EXTT16=
EXTT17=
EXTT18=
EXTT19=
EXTT20=
EXTT21=
EXTT22=
EXTT23=
EXTT24=
EXTT25=
EXTT26=
EXTT27=
PLAYORDER=
